# xmcd CD database file
#
# Track frame offsets:
#	150
#	19246
#	48935
#	54519
#	64046
#	67969
#	72014
#	86667
#	105827
#	168069
#	183074
#	202381
#
# Disc length: 2903 seconds
#
# Revision: 0
# Processed by: cddbd v1.5.1PL0 Copyright (c) Steve Scherf et al.
# Submitted via: CDex 1.51
#
DISCID=970b550c
DTITLE=Benny Goodman - Carnegie Hall Concert Vol. 1
DYEAR=1955
DGENRE=Jazz
TTITLE0=Don't Be That Way
TTITLE1=One O'Clock Jump
TTITLE2=Original Dixieland One Step
TTITLE3=I'm Coming Virginia
TTITLE4=When My Baby Smiles At Me
TTITLE5=Shine
TTITLE6=Blue Reverie
TTITLE7=Life Goes To A Party
TTITLE8=Jam Session: Honeysuckle Rose
TTITLE9=Body And Soul
TTITLE10=Avalon
TTITLE11=The Man I Love
EXTD=YEAR: 1955
EXTT0=
EXTT1=
EXTT2=
EXTT3=
EXTT4=
EXTT5=
EXTT6=
EXTT7=
EXTT8=
EXTT9=
EXTT10=
EXTT11=
PLAYORDER=
